<?xml version="1.0" encoding="UTF-8"?>
<svg id="Layer_1" xmlns="http://www.w3.org/2000/svg" version="1.1" viewBox="0 0 935.43 935.43">
  <!-- Generator: Adobe Illustrator 30.7.0, SVG Export Plug-In . SVG Version: 2.1.4 Build 114)  -->
  <defs>
    <style>
      .st0 {
        stroke-dasharray: 2 2;
      }

      .st0, .st1 {
        fill: none;
        stroke: #dcddde;
        stroke-miterlimit: 10;
      }

      .st2 {
        opacity: .03;
      }
    </style>
  </defs>
  <path class="st2" d="M467.72,152.44c-174.12,0-315.28,141.16-315.28,315.28s141.16,315.28,315.28,315.28,315.28-141.16,315.28-315.28-141.16-315.28-315.28-315.28ZM467.72,655.46c-103.69,0-187.74-84.05-187.74-187.74s84.05-187.74,187.74-187.74,187.74,84.05,187.74,187.74-84.05,187.74-187.74,187.74Z"/>
  <circle class="st0" cx="467.72" cy="467.72" r="408.43"/>
  <g>
    <line class="st1" x1="467.72" y1="0" x2="467.72" y2="1"/>
    <line class="st0" x1="467.72" y1="3" x2="467.72" y2="933.43"/>
    <line class="st1" x1="467.72" y1="934.43" x2="467.72" y2="935.43"/>
  </g>
  <g>
    <line class="st1" y1="467.72" x2="1" y2="467.72"/>
    <line class="st0" x1="3" y1="467.72" x2="933.43" y2="467.72"/>
    <line class="st1" x1="934.43" y1="467.72" x2="935.43" y2="467.72"/>
  </g>
  <g>
    <line class="st1" x1="467.72" y1="34.19" x2="467.72" y2="35.19"/>
    <line class="st0" x1="467.72" y1="37.19" x2="467.72" y2="899.24"/>
    <line class="st1" x1="467.72" y1="900.24" x2="467.72" y2="901.24"/>
  </g>
  <g>
    <line class="st1" x1="34.19" y1="467.72" x2="35.19" y2="467.72"/>
    <line class="st0" x1="37.19" y1="467.72" x2="899.24" y2="467.72"/>
    <line class="st1" x1="900.24" y1="467.72" x2="901.24" y2="467.72"/>
  </g>
  <g>
    <line class="st1" x1="383.14" y1="42.52" x2="383.34" y2="43.5"/>
    <line class="st0" x1="383.73" y1="45.46" x2="551.9" y2="890.95"/>
    <line class="st1" x1="552.1" y1="891.93" x2="552.29" y2="892.91"/>
  </g>
  <g>
    <line class="st1" x1="42.52" y1="552.29" x2="43.5" y2="552.1"/>
    <line class="st0" x1="45.46" y1="551.71" x2="890.95" y2="383.53"/>
    <line class="st1" x1="891.93" y1="383.34" x2="892.91" y2="383.14"/>
  </g>
  <g>
    <line class="st1" x1="301.81" y1="67.19" x2="302.2" y2="68.12"/>
    <line class="st0" x1="302.96" y1="69.96" x2="632.85" y2="866.39"/>
    <line class="st1" x1="633.24" y1="867.32" x2="633.62" y2="868.24"/>
  </g>
  <g>
    <line class="st1" x1="67.19" y1="633.62" x2="68.12" y2="633.24"/>
    <line class="st0" x1="69.96" y1="632.47" x2="866.39" y2="302.58"/>
    <line class="st1" x1="867.32" y1="302.2" x2="868.24" y2="301.81"/>
  </g>
  <g>
    <line class="st1" x1="226.86" y1="107.25" x2="227.42" y2="108.09"/>
    <line class="st0" x1="228.53" y1="109.75" x2="707.46" y2="826.52"/>
    <line class="st1" x1="708.01" y1="827.35" x2="708.57" y2="828.18"/>
  </g>
  <g>
    <line class="st1" x1="107.25" y1="708.57" x2="108.09" y2="708.01"/>
    <line class="st0" x1="109.75" y1="706.9" x2="826.52" y2="227.97"/>
    <line class="st1" x1="827.35" y1="227.42" x2="828.18" y2="226.86"/>
  </g>
  <g>
    <line class="st1" x1="161.17" y1="161.17" x2="161.88" y2="161.88"/>
    <line class="st0" x1="163.29" y1="163.29" x2="772.85" y2="772.85"/>
    <line class="st1" x1="773.56" y1="773.56" x2="774.26" y2="774.26"/>
  </g>
  <g>
    <line class="st1" x1="161.17" y1="774.26" x2="161.88" y2="773.56"/>
    <line class="st0" x1="163.29" y1="772.14" x2="772.85" y2="162.58"/>
    <line class="st1" x1="773.56" y1="161.88" x2="774.26" y2="161.17"/>
  </g>
  <g>
    <line class="st1" x1="107.25" y1="226.86" x2="108.09" y2="227.42"/>
    <line class="st0" x1="109.75" y1="228.53" x2="826.52" y2="707.46"/>
    <line class="st1" x1="827.35" y1="708.01" x2="828.18" y2="708.57"/>
  </g>
  <g>
    <line class="st1" x1="226.86" y1="828.18" x2="227.42" y2="827.35"/>
    <line class="st0" x1="228.53" y1="825.69" x2="707.46" y2="108.92"/>
    <line class="st1" x1="708.01" y1="108.09" x2="708.57" y2="107.25"/>
  </g>
  <g>
    <line class="st1" x1="67.19" y1="301.81" x2="68.12" y2="302.2"/>
    <line class="st0" x1="69.96" y1="302.96" x2="866.39" y2="632.85"/>
    <line class="st1" x1="867.32" y1="633.24" x2="868.24" y2="633.62"/>
  </g>
  <g>
    <line class="st1" x1="301.81" y1="868.24" x2="302.2" y2="867.32"/>
    <line class="st0" x1="302.96" y1="865.47" x2="632.85" y2="69.04"/>
    <line class="st1" x1="633.24" y1="68.12" x2="633.62" y2="67.19"/>
  </g>
  <g>
    <line class="st1" x1="42.52" y1="383.14" x2="43.5" y2="383.34"/>
    <line class="st0" x1="45.46" y1="383.73" x2="890.95" y2="551.9"/>
    <line class="st1" x1="891.93" y1="552.1" x2="892.91" y2="552.29"/>
  </g>
  <g>
    <line class="st1" x1="383.14" y1="892.91" x2="383.34" y2="891.93"/>
    <line class="st0" x1="383.73" y1="889.97" x2="551.9" y2="44.48"/>
    <line class="st1" x1="552.1" y1="43.5" x2="552.29" y2="42.52"/>
  </g>
</svg>